<svg width="62" height="61" viewBox="0 0 62 61" fill="none" xmlns="http://www.w3.org/2000/svg">
<g clip-path="url(#clip0_103_247)">
<path d="M30.7242 0.347656C13.8384 0.347656 0.149414 13.8471 0.149414 30.4993C0.149414 44.6392 10.0214 56.5044 23.3386 59.7632V39.7136H17.0341L17.0341 30.4993H23.3386V26.5289C23.3386 16.2665 28.0483 11.5098 38.2652 11.5098C40.2024 11.5098 43.5449 11.8849 44.9122 12.2587V20.6107C44.1906 20.536 42.937 20.4986 41.3802 20.4986C36.3671 20.4986 34.4299 22.3716 34.4299 27.2405V30.4993L44.4169 30.4993L42.701 39.7136H34.4299V60.4302C49.5693 58.6271 61.3003 45.9152 61.3003 30.4993C61.2991 13.8471 47.6101 0.347656 30.7242 0.347656Z" fill="white"/>
</g>
<defs>
<clipPath id="clip0_103_247">
<rect width="61.1496" height="60.3032" fill="white" transform="translate(0.149414 0.347656)"/>
</clipPath>
</defs>
</svg>
