<svg width="62" height="61" viewBox="0 0 62 61" fill="none" xmlns="http://www.w3.org/2000/svg">
<path d="M30.5748 5.49238C38.744 5.49238 39.7114 5.52812 42.9242 5.67109C45.91 5.80215 47.5224 6.30254 48.5972 6.71953C50.0185 7.26758 51.0456 7.93477 52.1086 8.99512C53.1835 10.0674 53.8404 11.0801 54.3897 12.4979C54.8078 13.5701 55.3094 15.1904 55.4408 18.157C55.5841 21.3738 55.6199 22.3389 55.6199 30.4762C55.6199 38.6254 55.5841 39.5904 55.4408 42.7953C55.3094 45.7738 54.8078 47.3822 54.3897 48.4545C53.8404 49.8723 53.1715 50.8969 52.1086 51.9572C51.0337 53.0295 50.0185 53.6848 48.5972 54.2328C47.5224 54.6498 45.8981 55.1502 42.9242 55.2812C39.6995 55.4242 38.7321 55.46 30.5748 55.46C22.4056 55.46 21.4382 55.4242 18.2255 55.2812C15.2396 55.1502 13.6273 54.6498 12.5524 54.2328C11.1311 53.6848 10.104 53.0176 9.04107 51.9572C7.96617 50.885 7.30929 49.8723 6.7599 48.4545C6.34189 47.3822 5.84027 45.7619 5.70889 42.7953C5.56557 39.5785 5.52974 38.6135 5.52974 30.4762C5.52974 22.327 5.56557 21.3619 5.70889 18.157C5.84027 15.1785 6.34189 13.5701 6.7599 12.4979C7.30929 11.0801 7.97812 10.0555 9.04107 8.99512C10.116 7.92285 11.1311 7.26758 12.5524 6.71953C13.6273 6.30254 15.2516 5.80215 18.2255 5.67109C21.4382 5.52812 22.4056 5.49238 30.5748 5.49238ZM30.5748 0C22.2742 0 21.2352 0.0357422 17.9747 0.178711C14.7261 0.32168 12.4927 0.845898 10.5579 1.59648C8.53945 2.38281 6.83156 3.41934 5.13562 5.12305C3.42772 6.81484 2.38866 8.51856 1.6004 10.5201C0.847974 12.4621 0.322469 14.6781 0.179149 17.9187C0.0358299 21.1832 0 22.2197 0 30.5C0 38.7803 0.0358299 39.8168 0.179149 43.0693C0.322469 46.31 0.847974 48.5379 1.6004 50.468C2.38866 52.4814 3.42772 54.1852 5.13562 55.8769C6.83156 57.5687 8.53945 58.6172 10.5459 59.3916C12.4927 60.1422 14.7141 60.6664 17.9627 60.8094C21.2232 60.9523 22.2623 60.9881 30.5629 60.9881C38.8635 60.9881 39.9025 60.9523 43.1631 60.8094C46.4116 60.6664 48.645 60.1422 50.5798 59.3916C52.5863 58.6172 54.2942 57.5687 55.9901 55.8769C57.6861 54.1852 58.7371 52.4814 59.5134 50.4799C60.2658 48.5379 60.7914 46.3219 60.9347 43.0812C61.078 39.8287 61.1138 38.7922 61.1138 30.5119C61.1138 22.2316 61.078 21.1951 60.9347 17.9426C60.7914 14.702 60.2658 12.474 59.5134 10.5439C58.761 8.51855 57.7219 6.81484 56.014 5.12305C54.3181 3.43125 52.6102 2.38281 50.6037 1.6084C48.657 0.857812 46.4355 0.333594 43.1869 0.190625C39.9145 0.0357422 38.8754 0 30.5748 0Z" fill="white"/>
<path d="M30.5746 14.832C21.9037 14.832 14.8691 21.8494 14.8691 30.499C14.8691 39.1486 21.9037 46.166 30.5746 46.166C39.2454 46.166 46.28 39.1486 46.28 30.499C46.28 21.8494 39.2454 14.832 30.5746 14.832ZM30.5746 40.6617C24.9493 40.6617 20.3869 36.1105 20.3869 30.499C20.3869 24.8875 24.9493 20.3363 30.5746 20.3363C36.1999 20.3363 40.7622 24.8875 40.7622 30.499C40.7622 36.1105 36.1999 40.6617 30.5746 40.6617Z" fill="white"/>
<path d="M50.5676 14.2123C50.5676 16.2377 48.9194 17.8699 46.901 17.8699C44.8706 17.8699 43.2344 16.2258 43.2344 14.2123C43.2344 12.1869 44.8826 10.5547 46.901 10.5547C48.9194 10.5547 50.5676 12.1988 50.5676 14.2123Z" fill="white"/>
</svg>
