<svg width="62" height="61" viewBox="0 0 62 61" fill="none" xmlns="http://www.w3.org/2000/svg">
<path d="M0.298828 60.6509L4.59713 45.1655C1.94477 40.6327 0.55107 35.4944 0.553618 30.2254C0.561261 13.7526 14.1543 0.347656 30.8557 0.347656C38.9606 0.350169 46.5686 3.46332 52.2912 9.11172C58.0112 14.7601 61.1604 22.2679 61.1579 30.253C61.1502 46.7284 47.5572 60.1333 30.8557 60.1333C25.7854 60.1307 20.789 58.8769 16.3633 56.495L0.298828 60.6509ZM17.1073 51.0853C21.3776 53.5853 25.4542 55.0829 30.8456 55.0854C44.7265 55.0854 56.0341 43.9444 56.0417 30.248C56.0468 16.524 44.7927 5.39805 30.8659 5.39302C16.9748 5.39302 5.67489 16.534 5.66979 30.2279C5.66725 35.8185 7.32847 40.0045 10.1184 44.3841L7.57307 53.5502L17.1073 51.0853ZM46.1202 37.3562C45.9317 37.0447 45.4272 36.8587 44.6679 36.4844C43.9112 36.11 40.1887 34.3034 39.4931 34.0546C38.8001 33.8059 38.2956 33.6803 37.7886 34.429C37.2841 35.1753 35.8318 36.8587 35.391 37.3562C34.9502 37.8537 34.5069 37.9166 33.7502 37.5422C32.9934 37.1678 30.5525 36.3813 27.6607 33.836C25.4109 31.8561 23.8898 29.4113 23.449 28.6625C23.0082 27.9163 23.4032 27.5117 23.7802 27.1399C24.1217 26.8057 24.537 26.268 24.9166 25.8308C25.3013 25.3986 25.4262 25.087 25.681 24.587C25.9332 24.0895 25.8084 23.6523 25.6173 23.278C25.4262 22.9061 23.9127 19.2301 23.2834 17.7351C22.6668 16.2803 22.0426 16.4763 21.5789 16.4536L20.1266 16.4285C19.6221 16.4285 18.8017 16.6144 18.1086 17.3632C17.4156 18.112 15.4588 19.916 15.4588 23.592C15.4588 27.268 18.1723 30.8184 18.5494 31.3159C18.929 31.8134 23.8873 39.3563 31.4825 42.5901C33.289 43.3589 34.7005 43.8187 35.7987 44.163C37.6128 44.7308 39.2638 44.6504 40.5683 44.4595C42.0232 44.2459 45.0475 42.6529 45.6794 40.9091C46.3113 39.1628 46.3113 37.6678 46.1202 37.3562Z" fill="white"/>
</svg>
