<svg width="49" height="43" viewBox="0 0 49 43" fill="none" xmlns="http://www.w3.org/2000/svg">
<path d="M36.7186 4.24724C38.8032 1.90156 42.3947 1.68994 44.7404 3.77459V3.77459C47.0861 5.85924 47.2977 9.45073 45.213 11.7964L22.2691 37.6133C20.1845 39.959 16.593 40.1706 14.2473 38.0859V38.0859C11.9016 36.0013 11.69 32.4098 13.7747 30.0641L36.7186 4.24724Z" fill="#242F40"/>
<path d="M21.5266 30.6322C23.6801 32.7468 23.7116 36.2066 21.597 38.3601V38.3601C19.4825 40.5135 16.0226 40.545 13.8692 38.4305L3.89962 28.6409C1.74618 26.5264 1.71466 23.0665 3.82921 20.9131V20.9131C5.94376 18.7596 9.40365 18.7281 11.5571 20.8427L21.5266 30.6322Z" fill="#242F40"/>
</svg>
