<svg width="84" height="85" viewBox="0 0 84 85" fill="none" xmlns="http://www.w3.org/2000/svg">
<rect x="0.0185547" y="0.015625" width="83.9139" height="84.1557" rx="30" fill="white"/>
<path d="M35.9805 24.0427C35.9805 21.0333 38.42 18.5938 41.4294 18.5938C44.4388 18.5938 46.8784 21.0333 46.8784 24.0427V59.0479C46.8784 62.0573 44.4388 64.4969 41.4294 64.4969C38.42 64.4969 35.9805 62.0573 35.9805 59.0479V24.0427Z" fill="#242F40"/>
<path d="M58.8517 36.082C61.8698 36.082 64.3164 38.5286 64.3164 41.5467C64.3164 44.5647 61.8698 47.0113 58.8517 47.0113H24.0098C20.9918 47.0113 18.5452 44.5647 18.5452 41.5467C18.5452 38.5286 20.9918 36.082 24.0098 36.082H58.8517Z" fill="#242F40"/>
</svg>
