<svg width="72" height="72" viewBox="0 0 72 72" fill="none" xmlns="http://www.w3.org/2000/svg">
<path d="M0 71.9998L5.06099 53.5109C1.938 48.0989 0.296999 41.9639 0.299999 35.6729C0.308999 16.005 16.314 0 35.9789 0C45.5219 0.00299999 54.4799 3.71999 61.2179 10.464C67.9529 17.208 71.6608 26.1719 71.6578 35.7059C71.6488 55.3769 55.6439 71.3818 35.9789 71.3818C30.0089 71.3788 24.1259 69.8818 18.915 67.0378L0 71.9998ZM19.791 60.5789C24.8189 63.5639 29.6189 65.3519 35.9669 65.3549C52.3109 65.3549 65.6249 52.0529 65.6339 35.6999C65.6399 19.314 52.3889 6.02999 35.9909 6.02399C19.635 6.02399 6.32999 19.326 6.32399 35.6759C6.32099 42.3509 8.27698 47.3489 11.562 52.5779L8.56498 63.5219L19.791 60.5789ZM53.9519 44.1869C53.7299 43.8149 53.1359 43.5929 52.2419 43.1459C51.3509 42.6989 46.9679 40.5419 46.1489 40.2449C45.3329 39.9479 44.7389 39.7979 44.1419 40.6919C43.5479 41.5829 41.8379 43.5929 41.3189 44.1869C40.7999 44.7809 40.2779 44.8559 39.3869 44.4089C38.4959 43.9619 35.6219 43.0229 32.2169 39.9839C29.5679 37.6199 27.7769 34.7009 27.2579 33.8069C26.7389 32.9159 27.2039 32.4329 27.6479 31.9889C28.0499 31.5899 28.5389 30.9479 28.9859 30.4259C29.4389 29.9099 29.5859 29.5379 29.8859 28.9409C30.1829 28.3469 30.0359 27.8249 29.8109 27.3779C29.5859 26.9339 27.8039 22.545 27.0629 20.76C26.3369 19.023 25.6019 19.257 25.0559 19.23L23.3459 19.2C22.7519 19.2 21.786 19.422 20.97 20.316C20.154 21.21 17.85 23.3639 17.85 27.7529C17.85 32.1419 21.045 36.3809 21.489 36.9749C21.9359 37.5689 27.7739 46.5749 36.7169 50.4359C38.8439 51.3539 40.5059 51.9029 41.7989 52.3139C43.9349 52.9919 45.8789 52.8959 47.4149 52.6679C49.1279 52.4129 52.6889 50.5109 53.4329 48.4289C54.1769 46.3439 54.1769 44.5589 53.9519 44.1869Z" fill="white"/>
</svg>
