<svg width="45" height="46" viewBox="0 0 45 46" fill="none" xmlns="http://www.w3.org/2000/svg">
<path d="M24.102 6.59533C23.3748 5.08609 21.2255 5.08609 20.4984 6.59533L16.4188 15.0631C16.131 15.6605 15.5658 16.0764 14.9099 16.1735L5.71781 17.5345C4.09179 17.7752 3.4343 19.7658 4.59704 20.9276L11.3129 27.6385C11.7705 28.0957 11.9787 28.7461 11.8717 29.384L10.2922 38.8027C10.0172 40.4429 11.7478 41.6827 13.2123 40.8947L21.3526 36.5149C21.9442 36.1966 22.6562 36.1966 23.2478 36.5149L31.388 40.8947C32.8526 41.6827 34.5832 40.4429 34.3081 38.8027L32.7288 29.3849C32.6218 28.7464 32.8303 28.0957 33.2886 27.6384L40.0024 20.9389C41.1657 19.7781 40.5101 17.7874 38.8845 17.5451L29.6891 16.1744C29.0339 16.0767 28.4696 15.661 28.1821 15.0643L24.102 6.59533Z" fill="#F3A620"/>
</svg>
