<svg width="37" height="37" viewBox="0 0 37 37" fill="none" xmlns="http://www.w3.org/2000/svg">
<path d="M20.5024 1.59533C19.7752 0.0860877 17.6259 0.0860901 16.8988 1.59533L12.8192 10.0631C12.5314 10.6605 11.9662 11.0764 11.3103 11.1735L2.1182 12.5345C0.492177 12.7752 -0.165306 14.7658 0.997427 15.9276L7.7133 22.6385C8.17087 23.0957 8.37905 23.7461 8.27207 24.384L6.69264 33.8027C6.41759 35.4429 8.14815 36.6827 9.61273 35.8947L17.7529 31.5149C18.3446 31.1966 19.0565 31.1966 19.6482 31.5149L27.7884 35.8947C29.253 36.6827 30.9835 35.4429 30.7085 33.8027L29.1292 24.3849C29.0222 23.7464 29.2307 23.0957 29.689 22.6384L36.4028 15.9389C37.5661 14.7781 36.9104 12.7874 35.2849 12.5451L26.0895 11.1744C25.4343 11.0767 24.87 10.661 24.5825 10.0643L20.5024 1.59533Z" fill="white"/>
</svg>
